<svg width="206" height="47" viewBox="0 0 206 47" fill="none" xmlns="http://www.w3.org/2000/svg">
<g clip-path="url(#clip0_256_848)">
<g clip-path="url(#clip1_256_848)">
<path d="M95.2965 7.82227V28.8473H92.2521L82.661 15.5029C82.3538 15.1023 82.071 14.6954 81.8112 14.2821C81.5515 13.87 81.3275 13.4861 81.1394 13.1316H80.9974V28.8473H77.7061V7.82227H81.069L90.307 20.706C90.6129 21.1078 90.8969 21.5084 91.1567 21.9089C91.4165 22.3107 91.6404 22.6882 91.8298 23.0414H91.9719V7.82227H95.2965Z" fill="white"/>
<path d="M117.878 28.8473H114.196L111.966 23.0069H103.612L101.381 28.8473H97.8777L105.877 7.82227H109.841L117.878 28.8473ZM111.047 20.2108L108.569 13.8393C108.404 13.3914 108.269 12.9781 108.162 12.6006C108.056 12.2231 107.955 11.8456 107.862 11.4681H107.72C107.625 11.8456 107.525 12.2231 107.419 12.6006C107.313 12.9781 107.177 13.3914 107.012 13.8393L104.499 20.2108H111.047Z" fill="white"/>
<path d="M126.196 28.8473H122.762V10.937H116.32V7.82227H132.779L132.531 10.937H126.196V28.8473Z" fill="white"/>
<path d="M152.813 7.82227V20.0329C152.813 22.9595 152.04 25.2003 150.494 26.7576C148.948 28.315 146.796 29.0943 144.034 29.0943C141.297 29.0943 139.155 28.315 137.61 26.7576C136.064 25.2003 135.292 22.9583 135.292 20.0329V7.82227H138.725V19.7501C138.725 21.7093 139.168 23.2308 140.052 24.316C140.936 25.4012 142.287 25.9437 144.105 25.9437C145.945 25.9437 147.301 25.4012 148.175 24.316C149.048 23.2308 149.484 21.7093 149.484 19.7501V7.82227H152.813Z" fill="white"/>
<path d="M189.693 7.82208L189.41 10.901H179.748V16.7414H187.783V19.7499H179.748V25.767H189.87V28.8459H176.314V7.8208L189.693 7.82208Z" fill="white"/>
<path d="M172.173 14.5828C172.173 16.0928 171.748 17.3494 170.898 18.3527C170.049 19.356 168.975 20.0342 167.677 20.3874L173.518 28.8473H169.483L164.28 21.2025H160.493V28.8473H157.06V7.82227H163.856C165.579 7.82227 167.059 8.08204 168.298 8.60159C169.537 9.12114 170.493 9.88126 171.164 10.8845C171.838 11.8878 172.173 13.1201 172.173 14.5828ZM168.705 14.5828C168.705 13.6627 168.486 12.9192 168.05 12.3523C167.613 11.7854 167.023 11.367 166.28 11.0957C165.536 10.8244 164.67 10.6887 163.678 10.6887H160.493V18.4756H163.678C164.669 18.4756 165.536 18.3463 166.28 18.0865C167.023 17.8268 167.613 17.4083 168.05 16.8299C168.486 16.2528 168.705 15.5029 168.705 14.5828Z" fill="white"/>
<path d="M81.3839 33.3223L81.325 33.9647H78.4918V35.911H80.8694V36.5432H78.4918V38.5485H81.444V39.1909H77.7688V33.3235H81.3839V33.3223Z" fill="#71B12C"/>
<path d="M89.8144 38.8149C89.5892 38.9595 89.3205 39.0695 89.0069 39.1463C88.6934 39.2218 88.3581 39.2602 88.0011 39.2602C87.3805 39.2602 86.8302 39.1322 86.3516 38.875C85.873 38.6178 85.4994 38.2621 85.2319 37.8078C84.9644 37.3535 84.8301 36.8365 84.8301 36.2568C84.8301 35.6771 84.9593 35.164 85.2165 34.7161C85.4737 34.2682 85.8269 33.9124 86.2761 33.6488C86.7253 33.3852 87.2397 33.2534 87.822 33.2534C88.2251 33.2534 88.5744 33.2931 88.8726 33.3724C89.1695 33.4518 89.4407 33.5772 89.6852 33.7474L89.4471 34.4192C89.2552 34.2682 89.0223 34.1479 88.7484 34.0583C88.4746 33.97 88.179 33.9252 87.8616 33.9252C87.4125 33.9252 87.0158 34.0263 86.6728 34.226C86.3299 34.4269 86.0598 34.702 85.8653 35.0514C85.6708 35.4007 85.5736 35.8025 85.5736 36.2568C85.5736 36.7047 85.6772 37.1052 85.8858 37.4571C86.0944 37.8091 86.3823 38.0855 86.7521 38.2864C87.122 38.4873 87.5443 38.5871 88.0203 38.5871C88.3441 38.5871 88.6653 38.5423 88.9865 38.454C89.3064 38.3644 89.5764 38.2454 89.7939 38.0931L89.8144 38.8149Z" fill="#71B12C"/>
<path d="M96.2535 33.2534C96.8409 33.2534 97.3617 33.3839 97.8134 33.6437C98.2652 33.9035 98.6209 34.2592 98.8781 34.711C99.1353 35.1614 99.2646 35.6771 99.2646 36.2568C99.2646 36.8301 99.1353 37.342 98.8781 37.7924C98.6209 38.2441 98.2652 38.6012 97.8134 38.8635C97.3604 39.1271 96.8409 39.2589 96.2535 39.2589C95.6661 39.2589 95.1453 39.1271 94.6936 38.8635C94.2406 38.5999 93.8861 38.2429 93.6289 37.7924C93.3717 37.342 93.2424 36.8288 93.2424 36.2568C93.2424 35.6771 93.3717 35.164 93.6289 34.7161C93.8861 34.2682 94.2419 33.9124 94.6936 33.6488C95.1453 33.3852 95.6649 33.2534 96.2535 33.2534ZM96.2535 38.5973C96.6963 38.5973 97.0866 38.495 97.427 38.2915C97.7674 38.088 98.031 37.8078 98.2191 37.452C98.4072 37.0963 98.5019 36.6983 98.5019 36.2568C98.5019 35.8153 98.4085 35.4173 98.2191 35.0616C98.031 34.7059 97.7661 34.4256 97.427 34.2221C97.0866 34.0187 96.695 33.9163 96.2535 33.9163C95.812 33.9163 95.4192 34.0187 95.08 34.2221C94.7396 34.4269 94.4735 34.7046 94.2828 35.0565C94.0909 35.4084 93.9949 35.8089 93.9949 36.2568C93.9949 36.6983 94.0909 37.0963 94.2828 37.452C94.4748 37.8078 94.7396 38.088 95.08 38.2915C95.4192 38.495 95.8107 38.5973 96.2535 38.5973Z" fill="#71B12C"/>
<path d="M105.119 39.1898H104.396V33.9751H102.503V33.3237H107.031L106.981 33.9751H105.119V39.1898Z" fill="#71B12C"/>
<path d="M114.957 35.1496C114.957 35.5975 114.828 35.9597 114.571 36.2361C114.314 36.5125 113.992 36.6968 113.61 36.7889L115.294 39.1896H114.441L112.887 36.9578H111.608V39.1896H110.885V33.3223H112.699C113.161 33.3223 113.56 33.3926 113.898 33.5347C114.234 33.6767 114.495 33.8828 114.681 34.1515C114.864 34.4215 114.957 34.7542 114.957 35.1496ZM114.224 35.1496C114.224 34.8604 114.155 34.625 114.015 34.4433C113.877 34.2628 113.69 34.131 113.456 34.0478C113.222 33.9659 112.952 33.925 112.649 33.925H111.608V36.3743H112.649C112.952 36.3743 113.222 36.3333 113.456 36.2514C113.69 36.1695 113.877 36.0377 114.015 35.856C114.155 35.6743 114.224 35.4388 114.224 35.1496Z" fill="#71B12C"/>
<path d="M122.774 33.3223L122.715 33.9647H119.881V35.911H122.259V36.5432H119.881V38.5485H122.834V39.1909H119.158V33.3235H122.774V33.3223Z" fill="#71B12C"/>
<path d="M127.469 33.3223V39.1896H126.746V33.3223H127.469Z" fill="#71B12C"/>
<path d="M136.553 33.3223V39.1896H135.91L132.907 35.0613C132.828 34.95 132.753 34.8374 132.68 34.7261C132.607 34.6147 132.548 34.5149 132.502 34.4292H132.462V39.1896H131.769V33.3223H132.481L135.413 37.3724C135.499 37.4774 135.578 37.5849 135.651 37.6936C135.724 37.8024 135.783 37.9022 135.829 37.9944H135.869V33.3223H136.553Z" fill="#71B12C"/>
<path d="M145.767 39.1896H144.994L144.3 37.4121H141.764L141.06 39.1896H140.327L142.646 33.3223H143.448L145.767 39.1896ZM144.092 36.8286L143.25 34.7248C143.204 34.6135 143.165 34.5072 143.136 34.4087C143.106 34.3102 143.078 34.2116 143.051 34.1118H143.012C142.985 34.2104 142.957 34.3089 142.927 34.4087C142.898 34.5072 142.859 34.6135 142.813 34.7248L141.961 36.8286H144.092Z" fill="#71B12C"/>
<path d="M155.545 33.3223V39.1896H154.832V34.616H154.782C154.755 34.7209 154.718 34.8297 154.668 34.9423C154.618 35.0549 154.558 35.1829 154.485 35.3275L152.881 38.3501H152.168L150.573 35.3275C150.5 35.1829 150.44 35.0549 150.39 34.9423C150.34 34.831 150.299 34.7222 150.266 34.616H150.227V39.1896H149.533V33.3223H150.306L152.178 36.9271C152.251 37.0525 152.316 37.1818 152.376 37.3174C152.435 37.4531 152.485 37.5695 152.525 37.668H152.565C152.604 37.5695 152.655 37.4531 152.718 37.3174C152.781 37.183 152.845 37.0525 152.911 36.9271L154.783 33.3223H155.545Z" fill="#71B12C"/>
<path d="M163.47 33.3223L163.411 33.9647H160.578V35.911H162.955V36.5432H160.578V38.5485H163.53V39.1909H159.855V33.3235H163.47V33.3223Z" fill="#71B12C"/>
<path d="M172.228 33.3223V39.1896H171.584L168.582 35.0613C168.503 34.95 168.427 34.8374 168.354 34.7261C168.282 34.6147 168.223 34.5149 168.177 34.4292H168.137V39.1896H167.443V33.3223H168.156L171.088 37.3724C171.174 37.4774 171.253 37.5849 171.326 37.6936C171.399 37.8024 171.458 37.9022 171.504 37.9944H171.543V33.3223H172.228Z" fill="#71B12C"/>
<path d="M178.726 39.1898H178.003V33.9751H176.11V33.3237H180.638L180.588 33.9751H178.726V39.1898Z" fill="#71B12C"/>
<path d="M186.869 33.2534C187.456 33.2534 187.977 33.3839 188.429 33.6437C188.88 33.9035 189.236 34.2592 189.493 34.711C189.751 35.1614 189.88 35.6771 189.88 36.2568C189.88 36.8301 189.751 37.342 189.493 37.7924C189.236 38.2441 188.88 38.6012 188.429 38.8635C187.976 39.1271 187.456 39.2589 186.869 39.2589C186.281 39.2589 185.761 39.1271 185.309 38.8635C184.856 38.5999 184.501 38.2429 184.244 37.7924C183.987 37.342 183.858 36.8288 183.858 36.2568C183.858 35.6771 183.987 35.164 184.244 34.7161C184.501 34.2682 184.857 33.9124 185.309 33.6488C185.762 33.3852 186.281 33.2534 186.869 33.2534ZM186.869 38.5973C187.311 38.5973 187.702 38.495 188.042 38.2915C188.383 38.088 188.646 37.8078 188.834 37.452C189.022 37.0963 189.117 36.6983 189.117 36.2568C189.117 35.8153 189.024 35.4173 188.834 35.0616C188.646 34.7059 188.381 34.4256 188.042 34.2221C187.702 34.0187 187.31 33.9163 186.869 33.9163C186.426 33.9163 186.034 34.0187 185.695 34.2221C185.355 34.4269 185.089 34.7046 184.898 35.0565C184.706 35.4084 184.61 35.8089 184.61 36.2568C184.61 36.6983 184.706 37.0963 184.898 37.452C185.09 37.8078 185.355 38.088 185.695 38.2915C186.036 38.495 186.427 38.5973 186.869 38.5973Z" fill="#71B12C"/>
<path d="M52.1445 46.353H32.6371C30.5295 46.353 28.5665 45.2192 27.5133 43.3944L17.7596 26.5001C16.7064 24.674 16.7064 22.4077 17.7596 20.5829L27.5133 3.68859C28.5665 1.86377 30.5295 0.72998 32.6371 0.72998H52.1445C54.2508 0.72998 56.2151 1.86377 57.2683 3.68859L67.022 20.5829C68.0752 22.409 68.0752 24.6753 67.022 26.5001L57.2683 43.3944C56.2151 45.2192 54.2521 46.353 52.1445 46.353ZM32.6371 1.62575C30.8494 1.62575 29.1833 2.58807 28.2888 4.13648L18.5351 21.0308C17.6419 22.5792 17.6419 24.5025 18.5351 26.0522L28.2888 42.9465C29.182 44.4949 30.8481 45.4572 32.6371 45.4572H52.1445C53.9322 45.4572 55.5983 44.4949 56.4928 42.9465L66.2465 26.0522C67.1397 24.5038 67.1397 22.5804 66.2465 21.0308L56.4928 4.13648C55.5983 2.58807 53.9322 1.62575 52.1445 1.62575H32.6371Z" fill="white"/>
<path d="M46.2925 29.8019V21.603L38.8538 25.7121L46.2925 29.8019Z" fill="#71B12C"/>
<path d="M54.8291 7.50732L47.1536 11.697L47.1523 30.1653L54.8291 25.9398V7.50732Z" fill="white"/>
<path d="M38.0464 26.1445L30.042 30.5517V39.5734L38.0464 35.1662V26.1445Z" fill="white"/>
<path d="M30.042 11.7583V29.5471L46.1621 20.6341L30.042 11.7583Z" fill="white"/>
<path d="M30.042 11.7583L46.1621 20.6354L30.042 29.5471V11.7583Z" fill="white"/>
<path d="M54.8293 34.4881V26.979L47.9753 30.7336L54.8293 34.4881Z" fill="white"/>
</g>
</g>
<defs>
<clipPath id="clip0_256_848">
<rect width="204.88" height="45.623" fill="white" transform="translate(0.984863 0.72998)"/>
</clipPath>
<clipPath id="clip1_256_848">
<rect width="172.91" height="45.623" fill="white" transform="translate(16.9697 0.72998)"/>
</clipPath>
</defs>
</svg>
